<svg xmlns="http://www.w3.org/2000/svg" xml:space="preserve" width="1500" height="121" data-id="lg_ulEPM1YDeIq2HZqkOx" data-version="1" viewBox="0 0 1500 121"><g data-padding="20"><g transform="translate(10 2.168)scale(.96416)"><path fill="#3730a3" d="M550.314 95.82h-14.04l-16.1-30.25q-5.01.21-8.93.21h-3.04v30.04h-11.86V15.84h18.17q13.82 0 22.74 5.71 8.92 5.72 8.92 18.55 0 8.06-3.75 13.88-3.76 5.82-11.16 8.97Zm-42.11-39.94h7.72q10.67 0 14.64-4.62 3.97-4.63 3.97-11.05 0-14.25-19.04-14.25h-7.29Zm86.51 41.03q-10.88 0-20.07-5.06-9.2-5.06-14.64-14.41-5.44-9.36-5.44-21.77 0-12.51 5.44-21.81t14.64-14.31q9.19-5.01 20.07-5.01t20.08 5.01q9.19 5.01 14.63 14.31t5.44 21.81q0 12.41-5.44 21.77-5.44 9.35-14.63 14.41-9.2 5.06-20.08 5.06m0-10.99q7.51 0 13.71-3.53 6.2-3.54 9.85-10.34 3.64-6.8 3.64-16.27 0-9.57-3.64-16.37-3.65-6.8-9.79-10.28-6.15-3.49-13.77-3.49t-13.82 3.49q-6.2 3.48-9.79 10.28t-3.59 16.37q0 9.47 3.7 16.27t9.95 10.34q6.26 3.53 13.55 3.53m85.74 10.99q-10.88 0-20.07-5.06-9.2-5.06-14.64-14.41-5.44-9.36-5.44-21.77 0-12.51 5.44-21.81t14.64-14.31q9.19-5.01 20.07-5.01t20.08 5.01q9.19 5.01 14.63 14.31t5.44 21.81q0 12.41-5.44 21.77-5.44 9.35-14.63 14.41-9.2 5.06-20.08 5.06m0-10.99q7.51 0 13.71-3.53 6.2-3.54 9.85-10.34t3.65-16.27q0-9.57-3.65-16.37t-9.79-10.28q-6.15-3.49-13.77-3.49-7.61 0-13.82 3.49-6.2 3.48-9.79 10.28t-3.59 16.37q0 9.47 3.7 16.27t9.96 10.34q6.25 3.53 13.54 3.53m88.79 9.9-19.26-37.33-5-11.31-2.29 11.31-7.4 37.33h-12.08l16.54-79.98h1.31l21.98 43.2 6.53 14.47 6.53-14.47 21.54-43.2h1.2l17.19 79.98h-11.97l-8.05-37.33-2.4-11.31-4.35 11.31-19.37 37.33Zm54.19 0V15.84h12.18v79.98Zm25.68 0V15.84h37.54v10.55h-25.46v22.64h19.8v10.66h-19.8v36.13Z"/><path fill="#3730a3" d="M912.764 95.82V58.49l-27.75-42.65h14.58l19.26 31.56 19.26-31.56h14.48l-27.64 42.87v37.11Z"/><rect width="477.028" height="120.553" x="129.35" y="-399.077" fill="none" rx="0" ry="0" transform="translate(359.01 399.3)"/><path fill="#3730a3" d="M1041.353 99.058V42.67c-25.542 10.123-75.18 10.123-75.18 10.123v46.754h-3.864v12.32h84.35v-8.946Zm-68.92.488h-3.841v-6.272h3.852Zm0-10.29h-3.841v-6.26h3.852Zm0-10.279h-3.841v-6.26h3.852Zm0-10.278h-3.841v-6.26h3.852Zm6.615 30.847h-3.851v-6.272h3.85Zm0-10.29h-3.851v-6.26h3.85Zm0-10.279h-3.851v-6.26h3.85Zm0-10.278h-3.851v-6.26h3.85Zm6.627 30.847H981.8v-6.272h3.863Zm0-10.29H981.8v-6.26h3.863Zm0-10.279H981.8v-6.26h3.863Zm0-10.278H981.8v-6.26h3.863Zm6.616 30.847h-3.863v-6.272h3.863Zm0-10.29h-3.863v-6.26h3.863Zm0-10.279h-3.863v-6.26h3.863Zm0-10.278h-3.863v-6.26h3.863Zm6.615 30.847h-3.852v-6.272h3.852Zm0-10.29h-3.852v-6.26h3.852Zm0-10.279h-3.852v-6.26h3.852Zm0-10.278h-3.852v-6.26h3.852Zm6.616 30.847h-3.852v-6.272h3.852Zm0-10.29h-3.852v-6.26h3.852Zm0-10.279h-3.852v-6.26h3.852Zm0-10.278h-3.852v-6.26h3.852Zm6.626 30.847h-3.862v-6.272h3.85Zm0-10.29h-3.862v-6.26h3.85Zm0-10.279h-3.862v-6.26h3.85Zm6.616 20.57h-3.852v-6.273h3.852Zm0-10.29h-3.852v-6.26h3.852Zm0-10.28h-3.852v-6.26h3.852Zm6.616 20.57h-3.841v-6.273h3.852Zm0-10.29h-3.841v-6.26h3.852Zm6.626 10.29h-3.863v-6.273h3.863Zm-48.84-72.906-3.363-2.975 1.865-.843 2.997 1.887 9.49-4.685-9.601-9.013 2.486-1.12 11.988 7.658 1.62-.755q1.444-.666 2.787-.82l1.243-.134q1.377-.134 1.565.3.222.466-.788 1.41l-.921.843a10 10 0 0 1-2.498 1.587l-1.598.677-2.098 14.097-2.486 1.11-.467-13.154-9.768 4.074-.555 3.486-1.853.854Zm-39.66 85.237h-2.464l2.464-1.532v-2.486l1.954 1.998v-2.72l2.32 1.432s3.374-27.583.888-36.297c0 0-4.718 1.598-5.25 4.63 0 0-1.333-4.097 1.065-7.294 0 0-3.83-2.142-7.215-1.066 0 0 3.64-4.55 7.38-2.197 0 0 1.222-5.595 3.398-6.705 0 0-.988 2.942.622 5.428 0 0 3.552-1.798 7.903-.666 0 0-2.22.755-3.82 3.596 0 0 1.777 3.552 1.966 5.695 0 0-2.941-1.776-4.54-1.776 0 0 1.332 1.243.089 36.108l2.397-1.243-.266 2.853 3.208-1.066-.533 2.22 1.066 1.077Z"/></g><path fill="transparent" stroke="transparent" d="M471 0h558v121H471z"/></g></svg>